<svg width="87" height="87" xmlns="http://www.w3.org/2000/svg" xmlns:xlink="http://www.w3.org/1999/xlink" xml:space="preserve" overflow="hidden"><g transform="translate(-377 -214)"><path d="M406.278 233.77C406.79 235.306 407.13 236.895 407.29 238.507L408.043 246.029C408.112 246.723 408.696 247.252 409.394 247.253 409.439 247.253 409.485 247.253 409.531 247.247 410.278 247.172 410.823 246.506 410.749 245.759 410.749 245.759 410.749 245.759 410.749 245.759L410.424 242.521C414.136 248.086 421.655 249.589 427.22 245.877 428.549 244.991 429.689 243.85 430.576 242.521L430.251 245.759C430.178 246.504 430.721 247.168 431.466 247.244 431.511 247.249 431.556 247.25 431.602 247.25 432.3 247.25 432.884 246.72 432.954 246.026L433.706 238.504C433.866 236.892 434.206 235.304 434.719 233.767L434.909 233.194C435.137 232.479 434.742 231.714 434.027 231.487 433.325 231.263 432.572 231.639 432.33 232.335L432.202 232.72C431.362 229.518 429.25 226.799 426.355 225.192 427.205 221.956 425.27 218.645 422.034 217.795 418.798 216.946 415.487 218.881 414.637 222.116 414.373 223.125 414.373 224.184 414.637 225.192 411.743 226.798 409.631 229.518 408.791 232.719L408.663 232.335C408.416 231.626 407.641 231.251 406.932 231.498 406.236 231.74 405.86 232.492 406.083 233.194Z" fill="#46B1E1"/><path d="M447.257 278.988C444.54 277.753 442.63 275.231 442.176 272.282L440.667 262.473C439.959 257.881 437.138 253.888 433.046 251.688 433.394 262.078 430.242 272.41 425.242 281.815L420.689 283.017 418.206 282.594C427.678 270.777 431.039 261.487 430.977 250.774 430.225 250.507 429.451 250.301 428.665 250.159 426.907 262.081 420.409 272.945 411.915 281.72L407.377 280.925C417.364 272.401 424.382 262.249 427.02 249.953 426.929 249.947 426.85 249.933 426.764 249.929L414.236 249.929C407.212 250.28 401.403 255.521 400.333 262.473L398.824 272.281C398.37 275.23 396.46 277.752 393.743 278.987 389.573 280.882 386.895 285.04 386.895 289.621 386.895 293.903 390.366 297.375 394.647 297.375 394.648 297.375 394.648 297.375 394.648 297.375L446.352 297.375C450.634 297.375 454.105 293.904 454.105 289.622 454.105 285.041 451.427 280.883 447.257 278.988Z" fill="#46B1E1"/></g></svg>