<svg width="87" height="87" xmlns="http://www.w3.org/2000/svg" xmlns:xlink="http://www.w3.org/1999/xlink" xml:space="preserve" overflow="hidden"><g transform="translate(-704 -214)"><path d="M758.05 237.819 761.168 243.986C761.389 244.428 761.363 244.954 761.099 245.373L743.982 272.747 743.982 288.43 760.614 288.43 760.614 263.917C760.612 263.867 760.65 263.825 760.7 263.822 760.75 263.818 760.793 263.857 760.796 263.907L762.624 281.76C762.69 282.128 763.013 282.393 763.387 282.384L770.248 281.691C770.616 281.626 770.881 281.302 770.871 280.928L767.475 247.659C766.949 242.611 763.069 238.562 758.05 237.819ZM747.447 282.087C746.681 282.087 746.06 281.466 746.06 280.7 746.06 279.934 746.681 279.313 747.447 279.313 748.212 279.313 748.833 279.934 748.833 280.7 748.831 281.465 748.211 282.085 747.447 282.087ZM747.447 275.795C746.682 275.795 746.061 275.174 746.062 274.409 746.063 273.644 746.683 273.024 747.448 273.024 748.213 273.025 748.833 273.645 748.833 274.41 748.831 275.175 748.211 275.794 747.447 275.795Z" fill="#46B1E1"/><path d="M743.496 255.629 738.784 240.037 736.566 244.541 743.496 255.629Z" fill="#46B1E1"/><path d="M758.327 244.541 756.109 240.037 751.397 255.629 758.327 244.541Z" fill="#46B1E1"/><path d="M733.794 245.373C733.529 244.955 733.503 244.428 733.725 243.986L736.843 237.823C731.835 238.59 727.969 242.628 727.418 247.664L723.954 280.924C723.911 281.301 724.181 281.641 724.558 281.684 724.565 281.685 724.571 281.685 724.577 281.686L731.438 282.379C731.816 282.422 732.156 282.151 732.199 281.774 732.2 281.768 732.2 281.762 732.201 281.756L734.098 263.848C734.101 263.798 734.144 263.759 734.194 263.763 734.244 263.766 734.282 263.808 734.28 263.858L734.28 288.43 741.21 288.43 741.21 272.331C741.213 272.063 741.285 271.801 741.417 271.569L745.784 264.569Z" fill="#46B1E1"/><path d="M753.892 237.68 741.001 237.68 747.447 259.163 753.892 237.68Z" fill="#46B1E1"/><path d="M754.755 230.43 749.414 230.43 749.414 227.068C749.412 226.475 749.055 225.939 748.508 225.709 745.965 224.632 745.467 223.585 745.467 222.143 745.611 220.844 746.636 219.819 747.935 219.676 749.36 219.676 750.892 220.447 750.892 222.14 750.912 222.956 751.591 223.602 752.407 223.582 753.196 223.563 753.829 222.928 753.849 222.14 753.849 219.05 751.306 216.719 747.935 216.719 745.003 216.865 742.66 219.208 742.516 222.14 742.516 225.402 744.467 227.02 746.458 228.016L746.458 230.43 740.255 230.43C727.748 230.444 717.613 240.579 717.599 253.087L717.599 297.375 777.412 297.375 777.412 253.087C777.398 240.579 767.263 230.444 754.755 230.43ZM773.787 293.75 721.224 293.75 721.224 253.087C721.236 242.581 729.75 234.067 740.255 234.055L754.755 234.055C765.262 234.067 773.775 242.581 773.787 253.087Z" fill="#46B1E1"/></g></svg>