<svg width="87" height="87" xmlns="http://www.w3.org/2000/svg" xmlns:xlink="http://www.w3.org/1999/xlink" xml:space="preserve" overflow="hidden"><g transform="translate(-541 -214)"><path d="M598.094 268.375 619.844 268.375C619.844 271.366 614.95 273.812 608.969 273.812 602.988 273.812 598.094 271.366 598.094 268.375Z" fill="#46B1E1"/><path d="M570.906 249.344C570.906 252.334 566.012 254.781 560.031 254.781 554.05 254.781 549.156 252.334 549.156 249.344Z" fill="#46B1E1"/><path d="M573.625 288.312 562.75 288.312 562.75 293.75 606.25 293.75 606.25 288.312 595.466 288.312 595.466 286.5C595.466 285.5 594.65 284.69 593.653 284.688L587.219 284.688 587.219 238.64 587.255 238.62 606.422 246.517 601.456 265.656 605.199 265.656 608.969 251.129 612.739 265.656 616.482 265.656 611.869 247.862C613.246 247.266 613.872 245.668 613.283 244.292 613.002 243.643 612.476 243.129 611.823 242.86L589.938 233.847C589.901 231.94 588.868 230.19 587.219 229.237L587.219 223.969C587.219 222.467 586.004 221.25 584.5 221.25 582.996 221.25 581.781 222.467 581.781 223.969L581.781 229.236C581.392 229.46 581.038 229.732 580.712 230.043L559.868 221.455C558.463 220.925 556.896 221.634 556.37 223.039 555.863 224.366 556.47 225.854 557.747 226.458L552.518 246.625 556.261 246.625 560.031 232.098 563.801 246.625 567.544 246.625 562.859 228.571 579.244 235.322C579.615 236.721 580.531 237.915 581.781 238.64L581.781 284.688 575.438 284.688C574.441 284.69 573.625 285.5 573.625 286.5ZM584.5 235.75C583.503 235.75 582.688 234.939 582.688 233.938 582.688 232.936 583.503 232.125 584.5 232.125 585.497 232.125 586.312 232.936 586.312 233.938 586.312 234.939 585.497 235.75 584.5 235.75Z" fill="#46B1E1"/></g></svg>