<?xml version="1.0" standalone="no"?><!DOCTYPE svg PUBLIC "-//W3C//DTD SVG 1.1//EN" "http://www.w3.org/Graphics/SVG/1.1/DTD/svg11.dtd"><svg t="1716349068202" class="icon" viewBox="0 0 1024 1024" version="1.1" xmlns="http://www.w3.org/2000/svg" p-id="4200" xmlns:xlink="http://www.w3.org/1999/xlink" width="48" height="48"><path d="M96.92 106.01c21.12-23.73 52.32-38.1 84.09-38.52 212.99 0.02 425.98 0 638.97 0.01 11.35 0.1 22.79-0.58 34.02 1.46 30.49 4.84 58.62 22.54 76.27 47.85 13.67 19.17 21.04 42.63 21.23 66.15 0.01 118.01 0 236.03 0 354.05-0.11 13.25 0.65 26.62-1.83 39.72-4.73 26.96-19.43 52.03-40.66 69.31-15.68 12.96-34.86 21.66-54.95 24.88-12.23 2.15-24.66 1.48-37 1.58-20.86 0-41.71 0-62.55 0.01-0.01 22.99-0.01 45.99 0 68.99 19.52 0 39.04-0.01 58.57 0 6.31 0.04 12.64-0.25 18.93 0.54 26.24 2.63 51.28 15.45 68.81 35.15 8.77 9.79 15.77 21.2 20.41 33.51 8.99 23.61 9.25 50.42 0.76 74.21-10.38 29.98-34.9 54.56-64.78 65.2-11.6 4.18-23.91 6.28-36.23 6.39-205.99 0.01-411.99 0-617.98 0.01-10.29 0.18-20.64-0.63-30.65-3.1-33.52-7.94-62.26-33.12-74.56-65.3-13.49-33.87-8.13-74.45 13.91-103.53 16.66-22.54 42.48-38.03 70.22-42.05 11.59-1.78 23.35-1.17 35.03-1.28H264c0.01-22.92 0-45.83 0-68.74-27.94-0.06-55.89 0.09-83.83-0.08-34.1-0.75-67.31-17.53-88.22-44.45-13.55-17.19-22.09-38.28-24.21-60.07-0.78-6.62-0.41-13.3-0.49-19.95 0-122.65 0.01-245.3-0.01-367.95 0.66-27.16 11.47-53.87 29.68-74m76.59 8.68c-17.78 2.53-34.39 12.31-45.28 26.58-9.85 12.61-15.1 28.76-14.49 44.76 0.01 122.99 0.02 245.97 0 368.96-0.4 14.26 4.03 28.51 12.02 40.28 9.85 14.39 25.11 25.06 42.16 28.88 12.82 2.99 26.07 1.48 39.1 1.85h627.94c15.47-0.06 30.89-5.29 43.05-14.88 13.87-10.7 23.4-26.81 26.07-44.13 1.28-7.59 0.85-15.32 0.92-22.98V184.04c-0.03-17.85-7.04-35.64-19.53-48.45-12.47-13.19-30.27-21.17-48.43-21.58-218.36-0.02-436.71 0-655.07-0.01-2.83 0.02-5.66 0.28-8.46 0.69m137 557.81c-0.03 31.17 0.03 62.33-0.03 93.49-0.29 11.65-10.8 21.9-22.48 21.76-27.33-0.01-54.66 0-82 0-7.38-0.07-14.86-0.04-22.07 1.76-17.1 3.94-32.21 15.74-40.15 31.4-6.48 12.33-8.41 26.93-5.52 40.54 3.19 15.52 12.78 29.53 25.96 38.29 9.92 6.66 21.85 10.15 33.79 10.26h613.98c9.04 0.18 18.26 0 26.94-2.86 12.3-3.9 23.34-11.74 30.92-22.21 11.96-16.07 15.15-38.23 8.06-56.99-6.82-18.96-23.69-33.85-43.33-38.35-10.02-2.51-20.41-1.32-30.62-1.59-22.98 0.01-45.97-0.02-68.95 0.02-4.42 0.09-8.99-0.1-13.06-2-8.27-3.42-13.88-12.06-13.93-20.97-0.05-30.85 0-61.7-0.02-92.54-132.5-0.01-265-0.01-397.49-0.01z" p-id="4201" fill="#1296db"></path><path d="M314.51 252.73c24.4-3.23 49.82 1.41 71.36 13.36 20.4 11.16 37.29 28.6 47.74 49.36 12.01 23.41 15.47 50.97 10.08 76.68-6.04 29.35-24.05 55.97-48.97 72.58-16.21 10.97-35.26 17.66-54.76 19.31-24.47 2.22-49.62-3.59-70.59-16.42-24.51-14.83-43.22-39-51.21-66.54-7.7-26.08-5.95-54.87 5.04-79.76 10.73-24.5 30.16-45.07 54.07-57.08 11.63-5.93 24.3-9.79 37.24-11.49m11.77 45.59c-16.79 0.9-33.21 7.99-45.16 19.85-13.35 12.86-21.19 31.25-21.15 49.79-0.05 12.64 3.48 25.26 10.02 36.08 8.76 14.52 22.9 25.78 39.15 30.72 17.32 5.57 36.78 3.73 52.85-4.75 15.45-8 27.68-21.98 33.51-38.37 4.48-12.29 5.35-25.85 2.48-38.61-3.8-17.29-14.48-32.96-29.21-42.78-12.37-8.44-27.53-12.68-42.49-11.93zM672.59 253.76c22.24-3.02 45.4 0.19 65.7 9.89 27.26 12.64 49.07 36.37 59.53 64.52 9.03 24.12 9.75 51.24 2.01 75.8-9.37 30.19-31.67 56.08-60.19 69.72-36.05 17.88-81.42 14.98-114.85-7.48-28.56-18.56-48.09-50.28-51.63-84.19-4.32-36.14 9.61-73.83 36.5-98.38 17.28-16.06 39.53-26.72 62.93-29.88m10.66 45.62c-18.97 1.47-37.13 11.12-48.92 26.05-9.68 11.95-15.17 27.2-15.36 42.58-0.25 15.35 4.79 30.73 14.1 42.94 9.54 12.78 23.62 22.08 39.12 25.86 15.75 3.89 32.91 2.12 47.42-5.22 15.61-7.64 28.15-21.34 34.35-37.58 5.29-13.6 6.15-28.87 2.3-42.96-3.94-14.98-13.13-28.45-25.48-37.78-13.46-10.21-30.68-15.29-47.53-13.89zM393.46 746.59c6.06-1.42 12.72-0.44 17.94 3.03 6.5 4.1 10.74 11.63 10.61 19.36-0.04 21.68 0.02 43.37-0.03 65.06-0.07 12.65-12.28 23.45-24.83 22.14-11.39-0.6-21.24-10.8-21.36-22.22-0.09-21.65-0.02-43.3-0.04-64.95-0.15-10.38 7.63-20.11 17.71-22.42zM500.28 746.32c12.85-2.76 26.59 7.53 27.2 20.72 0.07 21.99-0.03 43.99 0.05 65.98 0.29 7.38-3.6 14.62-9.55 18.88-6.57 4.82-15.74 5.69-23.13 2.26-7.78-3.46-13.33-11.62-13.36-20.17 0.01-21.99 0.01-43.98 0-65.97 0.02-10.51 8.55-19.92 18.79-21.7zM607.46 746.63c7.22-1.79 15.32 0.03 20.86 5.06 4.95 4.29 7.94 10.74 7.93 17.31-0.02 21.66 0.05 43.33-0.04 65-0.17 10.97-9.28 20.85-20.17 22.05-10.29 1.57-20.93-4.96-24.55-14.64-1.9-4.56-1.47-9.58-1.49-14.39-0.01-18.36 0.02-36.72-0.02-55.08-1.33-11.27 6.35-22.75 17.48-25.31z" p-id="4202" fill="#1296db"></path></svg>