<svg width="87" height="87" xmlns="http://www.w3.org/2000/svg" xmlns:xlink="http://www.w3.org/1999/xlink" xml:space="preserve" overflow="hidden"><g transform="translate(-228 -214)"><path d="M305.385 247.259C303.809 243.551 299.526 241.822 295.818 243.397 292.801 244.679 291.009 247.816 291.438 251.066L281.704 255.135C280.01 252.151 277.053 250.097 273.666 249.552L273.666 239.103C277.543 238.102 279.874 234.148 278.873 230.271 277.872 226.394 273.918 224.063 270.041 225.064 266.164 226.065 263.833 230.019 264.834 233.896 265.493 236.45 267.487 238.444 270.041 239.103L270.041 249.543C266.682 250.087 263.746 252.114 262.048 255.062L252.278 250.975C253.045 246.867 250.335 242.915 246.227 242.149 242.118 241.382 238.167 244.092 237.401 248.2 236.634 252.309 239.344 256.26 243.452 257.026 246.192 257.538 248.992 256.501 250.738 254.328L260.752 258.406C260.095 261.578 260.835 264.88 262.782 267.469L254.997 275.353C251.553 273.311 247.106 274.447 245.063 277.891 243.021 281.335 244.157 285.782 247.601 287.825 251.044 289.867 255.492 288.731 257.535 285.287 258.887 283.007 258.887 280.171 257.535 277.891L265.401 270.024C269.281 272.719 274.426 272.719 278.306 270.024L286.172 277.891C284.509 280.761 284.953 284.387 287.26 286.772 290.073 289.621 294.663 289.651 297.513 286.838 300.362 284.025 300.391 279.434 297.578 276.585 295.238 274.214 291.583 273.743 288.719 275.444L280.889 267.532C282.377 265.572 283.182 263.178 283.182 260.717 283.183 259.978 283.11 259.24 282.964 258.515L292.933 254.419C294.91 257.044 298.406 258.011 301.452 256.775 305.129 255.197 306.875 250.973 305.385 247.259ZM271.908 253.875C273.66 253.875 275.08 255.295 275.08 257.047 275.08 258.799 273.66 260.219 271.908 260.219 270.156 260.219 268.736 258.799 268.736 257.047 268.736 255.295 270.156 253.875 271.908 253.875ZM278.251 266.563 265.564 266.563 265.564 264.097C265.576 263.601 265.809 263.136 266.198 262.829 267.139 262.153 268.187 261.641 269.298 261.315 270.15 261.071 271.03 260.94 271.917 260.926 272.804 260.928 273.686 261.06 274.536 261.315 275.66 261.607 276.714 262.122 277.635 262.829 278.025 263.136 278.258 263.601 278.27 264.097Z" fill="#46B1E1"/></g></svg>