<svg width="87" height="87" xmlns="http://www.w3.org/2000/svg" xmlns:xlink="http://www.w3.org/1999/xlink" xml:space="preserve" overflow="hidden"><g transform="translate(-79 -214)"><path d="M156.938 279.25C156.938 280.428 155.578 281.516 153.312 282.331L153.312 279.069C154.581 278.706 155.85 278.162 156.938 277.619L156.938 279.25ZM149.688 273.269 149.688 270.006C150.956 269.644 152.225 269.1 153.312 268.556L153.312 270.188C153.312 271.366 151.953 272.453 149.688 273.269ZM149.688 283.419C148.6 283.691 147.331 283.872 146.062 284.053L146.062 280.519C147.241 280.338 148.509 280.156 149.688 279.975L149.688 283.419ZM142.438 271.456C143.616 271.275 144.884 271.094 146.062 270.912L146.062 274.356C144.975 274.628 143.706 274.809 142.438 274.991L142.438 271.456ZM142.438 284.506C141.259 284.597 140.081 284.688 138.812 284.688L138.812 281.062C139.9 281.062 141.169 280.972 142.438 280.881L142.438 284.506ZM135.188 275.625 135.188 272C136.275 272 137.544 271.909 138.812 271.819L138.812 275.444C137.634 275.534 136.456 275.534 135.188 275.625ZM135.188 284.688C133.919 284.688 132.741 284.597 131.562 284.506L131.562 281.062C132.197 281.062 132.741 281.062 133.375 281.062 133.919 281.062 134.553 281.062 135.188 281.062L135.188 284.688ZM127.938 271.819C129.116 271.909 130.294 272 131.562 272L131.562 275.625C130.294 275.625 129.116 275.534 127.938 275.444L127.938 271.819ZM127.938 284.053C126.669 283.872 125.4 283.691 124.312 283.419L124.312 280.519C125.491 280.7 126.669 280.791 127.938 280.881L127.938 284.053ZM120.688 274.356 120.688 270.822C121.866 271.003 123.044 271.275 124.312 271.366L124.312 274.991C123.044 274.809 121.775 274.628 120.688 274.356ZM120.688 282.331C118.422 281.425 117.062 280.338 117.062 279.25L117.062 279.069C117.062 279.069 117.062 279.069 117.153 279.069 117.425 279.159 117.606 279.25 117.878 279.25 118.784 279.522 119.691 279.703 120.688 279.884L120.688 282.331ZM106.188 270.006C106.822 270.006 107.366 270.097 108 270.097L108 270.188C108 271.456 108.272 272.725 108.906 273.722 108 273.722 107.094 273.631 106.188 273.541L106.188 270.006ZM102.562 259.131C103.741 259.312 104.919 259.584 106.188 259.675L106.188 263.3C104.919 263.119 103.65 262.938 102.562 262.666L102.562 259.131ZM102.562 273.178C101.294 272.997 100.025 272.816 98.9375 272.544L98.9375 269.009C100.116 269.191 101.294 269.463 102.562 269.553L102.562 273.178ZM95.3125 258.406 95.3125 256.775C96.4 257.319 97.5781 257.772 98.9375 258.134L98.9375 261.488C96.6719 260.672 95.3125 259.584 95.3125 258.406ZM95.3125 271.456C93.0469 270.55 91.6875 269.463 91.6875 268.375L91.6875 266.744C92.775 267.287 93.9531 267.741 95.3125 268.103L95.3125 271.456ZM91.6875 243.181C92.775 243.725 93.9531 244.178 95.3125 244.541L95.3125 247.894C93.0469 246.987 91.6875 245.9 91.6875 244.812L91.6875 243.181ZM102.562 246.081 102.562 249.706C101.294 249.525 100.025 249.344 98.9375 249.072L98.9375 245.537C100.116 245.719 101.294 245.9 102.562 246.081ZM111.625 230.312C122.681 230.312 131.562 232.759 131.562 235.75 131.562 238.741 122.681 241.188 111.625 241.188 100.569 241.188 91.6875 238.741 91.6875 235.75 91.6875 232.759 100.569 230.312 111.625 230.312ZM117.062 273.269C114.797 272.363 113.438 271.275 113.438 270.188L113.438 268.556C114.525 269.1 115.703 269.553 117.062 269.916L117.062 273.269ZM127.938 247.894 127.938 244.631C129.206 244.269 130.475 243.725 131.562 243.181L131.562 244.812C131.562 245.991 130.203 247.078 127.938 247.894ZM120.688 249.616 120.688 246.081C121.866 245.9 123.134 245.719 124.312 245.537L124.312 248.981C123.225 249.253 121.956 249.434 120.688 249.616ZM113.438 250.25 113.438 246.625C114.525 246.625 115.794 246.534 117.062 246.444L117.062 250.069C115.884 250.159 114.706 250.159 113.438 250.25ZM106.188 250.069 106.188 246.444C107.366 246.534 108.544 246.625 109.812 246.625L109.812 250.25C108.544 250.159 107.366 250.159 106.188 250.069ZM153.312 261.125C153.312 264.116 144.431 266.562 133.375 266.562 122.319 266.562 113.438 264.116 113.438 261.125 113.438 258.134 122.319 255.688 133.375 255.688 144.431 255.688 153.312 258.134 153.312 261.125ZM158.75 263.844 158.75 261.125C158.75 256.866 155.397 253.784 148.872 252.062 146.425 251.428 143.616 250.884 140.444 250.612 140.534 250.25 140.534 249.797 140.534 249.344 140.534 246.806 139.356 244.631 136.909 243L136.909 235.75C136.909 231.491 133.556 228.409 127.031 226.688 122.772 225.509 117.334 224.875 111.534 224.875 103.922 224.875 86.1594 225.963 86.1594 235.75L86.1594 244.812C86.1594 247.35 87.3375 249.525 89.7844 251.156L89.7844 252.878C87.6094 254.419 86.1594 256.503 86.1594 259.312L86.1594 268.375C86.1594 272.634 89.5125 275.716 96.0375 277.438 100.297 278.616 105.734 279.25 111.534 279.25 111.534 283.509 114.887 286.591 121.412 288.312 125.672 289.491 131.109 290.125 136.909 290.125 144.522 290.125 162.284 289.037 162.284 279.25L162.284 270.188C162.375 267.65 161.197 265.475 158.75 263.844Z" fill="#46B1E1"/></g></svg>